<?xml version="1.0"?>
<svg xmlns="http://www.w3.org/2000/svg" xmlns:xlink="http://www.w3.org/1999/xlink" version="1.1" id="Capa_1" x="0px" y="0px" viewBox="0 0 512 512" style="enable-background:new 0 0 512 512;" xml:space="preserve" width="512px" height="512px" class=""><g><g>
	<g>
		<path d="M285.515,278.18c-17.102-14.147-41.928-14.147-59.029,0c-3.192,2.64-3.639,7.368-0.999,10.56    c2.641,3.192,7.368,3.639,10.56,0.998c11.561-9.565,28.367-9.592,39.907,0c3.789,3.149,9.076,0.794,10.56-0.998    C289.154,285.548,288.707,280.821,285.515,278.18z" data-original="#000000" class="active-path" data-old_color="#000000" fill="#FFFFFF"/>
	</g>
</g><g>
	<g>
		<path d="M386.305,361.429l-47.013-20.99c9.051-2.914,15.62-11.413,15.62-21.42c0-2.094-0.294-4.12-0.832-6.045    c14.908-11.016,22.242-24.397,25.521-37.008c19.99-1.754,35.725-18.577,35.725-39.015c0-15.475-9.063-29.249-22.721-35.56    c3.336-19.689,5.65-40.17,5.65-59.136c0-29.39-8.889-57.601-25.705-81.583c-2.377-3.391-7.056-4.214-10.446-1.834    c-3.392,2.378-4.213,7.055-1.835,10.447c15.038,21.445,22.986,46.678,22.986,72.971c0,4.748-0.153,9.603-0.437,14.525    c-1.51-4.527-3.257-9.214-5.279-13.974c-17.479-41.148-47.26-68.151-86.125-78.09c-9.585-2.451-19.738-0.428-27.986,5.365    c-7.429,5.217-9.858,3.516-14.857,0c-8.245-5.8-18.403-7.815-27.987-5.364c-54.817,14.019-79.949,57.591-91.406,91.99    c-0.281-4.896-0.433-9.727-0.433-14.451C128.744,72.086,185.83,15,255.999,15c30.138,0,59.368,10.725,82.308,30.198    c3.157,2.681,7.891,2.293,10.571-0.864c2.681-3.158,2.294-7.891-0.864-10.572C322.368,11.991,289.689,0,255.999,0    c-78.439,0-142.255,63.815-142.255,142.255c0,18.725,2.254,38.927,5.521,58.384c-0.031,0.277-22.593,9.549-22.593,36.312    c0,10.796,4.472,21.276,12.406,28.604c4.278,3.951,9.124,1.228,10.601-0.349c2.831-3.024,2.675-7.77-0.349-10.601    c-4.938-4.624-7.658-10.893-7.658-17.654c0-8.099,4.13-15.548,10.593-19.978c3.107,15.648,6.67,30.352,9.984,42.829    c6.141,23.115,20.668,42.836,40.908,55.533l23.193,14.548l-70.656,31.546c-23.353,10.426-38.441,33.688-38.441,59.261v62.876    c0,15.678,12.755,28.434,28.434,28.434h280.625c15.679,0,28.434-12.755,28.434-28.434V420.69    C424.746,395.117,409.657,371.855,386.305,361.429z M389.74,216.95c6.477,4.404,10.587,11.814,10.587,20.001    c0,11.364-7.883,20.916-18.467,23.489c0.119-2.96,0.068-5.776-0.095-8.394C384.476,241.388,387.253,229.475,389.74,216.95z     M332.411,326.519c-4.136,0-7.5-3.364-7.5-7.5s3.364-7.5,7.5-7.5s7.5,3.364,7.5,7.5S336.548,326.519,332.411,326.519z     M148.423,148.306c15.817-36.993,41.347-60.227,75.878-69.057c5.289-1.353,10.958-0.245,15.549,3.036    c2.391,1.708,4.85,3.479,6.896,4.959c5.534,3.999,12.973,4,18.511-0.001c2.045-1.478,4.504-3.25,6.894-4.957    c4.595-3.283,10.261-4.389,15.549-3.037c34.588,8.845,60.143,32.137,75.954,69.229c7.75,18.181,11.163,35.43,12.618,45.504h-8.69    c-1.536-4.76-3.816-9.306-6.829-13.479c-7.55-10.458-18.721-17.35-31.455-19.407c-18.368-2.964-45.031,3.93-59.539,18.86    c-4.289-1.588-8.922-2.461-13.757-2.461c-4.835,0-9.468,0.873-13.757,2.461c-14.508-14.931-41.172-21.826-59.54-18.86    c-12.734,2.057-23.905,8.949-31.455,19.407c-3.013,4.173-5.292,8.719-6.829,13.479h-8.69    C137.19,183.879,140.619,166.554,148.423,148.306z M353.12,198.015c1.748,5.102,2.227,10.587,1.343,16.061    c-1.417,8.778-6.168,16.479-13.378,21.684c-7.209,5.205-16.014,7.291-24.793,5.873c-7.62-1.23-16.25-5.175-23.765-10.696    L353.12,198.015z M281.112,220.068c-5.083-6.502-7.42-13.142-6.492-18.885c1.214-7.52,8.007-15.205,19.191-19.817    c29.505-12.166,46.444-1.056,51.361,3.896L281.112,220.068z M237.027,199.587c0.144,0.53,2.575,13.746-11.626,26.446    c-8.777,7.85-19.97,14.03-29.693,15.6c-8.783,1.419-17.584-0.668-24.793-5.873c-0.066-0.047-0.128-0.099-0.193-0.147    L237.027,199.587z M160.767,223.953c-1.566-3.065-2.666-6.383-3.23-9.877c-1.418-8.778,0.668-17.583,5.872-24.792    c5.205-7.21,12.906-11.961,21.685-13.378c9.727-1.572,22.405,0.521,33.095,5.461c3.818,1.764,7.14,3.792,9.919,5.997    L160.767,223.953z M181.129,302.627c-17.01-10.669-29.22-27.246-34.381-46.676c-3.604-13.564-7.51-29.805-10.761-46.969h6.12    c0.016,2.485,0.217,4.985,0.621,7.485c2.057,12.734,8.716,24.237,19.406,31.455c15.916,10.747,33.359,8.94,35.964,8.52    c24.881-4.018,58.555-29.996,54.09-57.651c-0.319-1.976-0.839-3.874-1.504-5.71c5.316-1.491,8.918-0.378,10.631,0    c-0.665,1.836-1.185,3.734-1.504,5.71c-4.465,27.655,29.209,53.632,54.09,57.65c2.605,0.42,19.622,3.597,35.964-8.52    c10.361-7.683,17.35-18.721,19.406-31.455c0.404-2.5,0.604-5,0.621-7.485h6.121c-3.251,17.164-7.158,33.406-10.761,46.97    c-4.314,16.242-13.857,30.858-26.935,41.359c-1.883-0.513-3.862-0.792-5.905-0.792c-11.249,0-20.596,8.298-22.242,19.094    l-34.477,21.627c-11.963,7.505-27.421,7.503-39.384,0L181.129,302.627z M211.65,339.481l16.687,10.466    c8.402,5.271,18.032,7.906,27.662,7.906c9.631,0,19.261-2.635,27.663-7.906l16.686-10.467l23.873,10.659    c-11.62,27.133-38.244,44.94-68.222,44.94s-56.602-17.806-68.222-44.939L211.65,339.481z M409.746,483.566    c0,7.407-6.026,13.434-13.434,13.434H115.687c-7.407,0-13.434-6.026-13.434-13.434V420.69c0-19.663,11.602-37.548,29.557-45.564    l42.272-18.873c14.012,32.505,45.957,53.825,81.917,53.825c35.96,0,67.906-21.32,81.917-53.825l42.272,18.873    c17.955,8.016,29.557,25.901,29.557,45.564V483.566z" data-original="#000000" class="active-path" data-old_color="#000000" fill="#FFFFFF"/>
	</g>
</g><g>
	<g>
		<path d="M358.479,423.825h-27.231c-4.143,0-7.5,3.358-7.5,7.5c0,4.142,3.357,7.5,7.5,7.5h27.231    c5.676,0,10.293,4.617,10.293,10.293c0,5.676-4.617,10.293-10.293,10.293h-59.952c-5.676,0-10.293-4.617-10.293-10.293    c0-5.676,4.617-10.293,10.293-10.293c4.143,0,7.5-3.358,7.5-7.5c0-4.142-3.357-7.5-7.5-7.5c-13.946,0-25.293,11.346-25.293,25.293    c0,13.947,11.347,25.293,25.293,25.293h59.952c13.946,0,25.293-11.346,25.293-25.293    C383.772,435.171,372.426,423.825,358.479,423.825z" data-original="#000000" class="active-path" data-old_color="#000000" fill="#FFFFFF"/>
	</g>
</g></g> </svg>
